<svg width="512" height="512" viewBox="0 0 512 512" fill="none" xmlns="http://www.w3.org/2000/svg">
<g clip-path="url(#clip0_28_2)">
<path d="M328.844 368.733C323.461 365.498 317.936 362.246 312.411 359.058C313.71 347.988 313.713 336.79 312.417 325.742C317.963 322.542 323.485 319.292 328.842 316.071C337.862 310.651 341.622 299.215 337.586 289.468L337.585 289.467L325.814 261.049C321.777 251.305 311.037 245.874 300.821 248.419C294.75 249.93 288.547 251.537 282.366 253.195C275.465 244.463 267.546 236.546 258.803 229.641C260.461 223.459 262.069 217.253 263.581 211.18C266.126 200.969 260.696 190.225 250.952 186.188L222.534 174.417C212.79 170.379 201.351 174.136 195.929 183.158C192.7 188.532 189.447 194.057 186.255 199.591C175.188 198.292 163.992 198.289 152.939 199.584C149.737 194.033 146.486 188.51 143.269 183.158C137.845 174.138 126.409 170.38 116.664 174.417L88.246 186.188C78.504 190.224 73.072 200.969 75.617 211.18C77.132 217.265 78.738 223.469 80.393 229.635C71.662 236.534 63.744 244.455 56.84 253.198C50.644 251.535 44.438 249.929 38.377 248.419C28.163 245.872 17.421 251.307 13.384 261.05L1.615 289.467C-2.42 299.212 1.339 310.649 10.357 316.069C15.732 319.299 21.257 322.551 26.79 325.744C25.492 336.81 25.489 348.006 26.784 359.06C21.246 362.255 15.724 365.506 10.355 368.732C1.337 374.153 -2.422 385.589 1.614 395.335L13.386 423.753C17.422 433.496 28.161 438.929 38.379 436.383C44.443 434.873 50.647 433.267 56.832 431.607C63.733 440.338 71.652 448.254 80.395 455.16C78.735 461.349 77.128 467.555 75.617 473.621C73.072 483.832 78.502 494.577 88.246 498.613L116.665 510.385C119.305 511.478 122.068 512 124.802 512C132.164 512 139.316 508.221 143.273 501.645C146.478 496.312 149.729 490.789 152.947 485.213C164.012 486.51 175.211 486.512 186.263 485.219C189.442 490.731 192.693 496.253 195.933 501.646C201.355 510.666 212.791 514.423 222.538 510.387L250.956 498.616C260.698 494.58 266.13 483.835 263.585 473.624C262.082 467.591 260.476 461.387 258.809 455.169C267.538 448.27 275.457 440.35 282.363 431.607C288.541 433.264 294.747 434.87 300.823 436.384C311.034 438.931 321.779 433.5 325.816 423.754L337.587 395.335C341.621 385.59 337.862 374.153 328.844 368.733ZM305.116 413.834C299.279 412.372 293.329 410.826 287.413 409.232C279.037 406.979 270.198 409.924 264.894 416.739C258.798 424.569 251.743 431.625 243.926 437.712C237.119 443.014 234.178 451.85 236.433 460.221C238.036 466.175 239.581 472.121 241.034 477.917L214.912 488.736C211.805 483.552 208.694 478.255 205.653 472.971C201.326 465.457 192.998 461.293 184.437 462.353C174.606 463.574 164.627 463.573 154.783 462.348C146.198 461.282 137.877 465.446 133.551 472.962C130.473 478.306 127.361 483.606 124.288 488.735L98.166 477.915C99.627 472.088 101.173 466.139 102.769 460.214C105.024 451.839 102.077 442.999 95.262 437.694C87.432 431.599 80.377 424.545 74.289 416.729C68.989 409.92 60.153 406.98 51.779 409.234C45.856 410.829 39.909 412.375 34.084 413.835L23.264 387.714C28.424 384.62 33.723 381.509 39.029 378.454C46.544 374.127 50.712 365.801 49.648 357.239C48.425 347.407 48.428 337.429 49.651 327.584C50.719 319.014 46.554 310.679 39.035 306.351C33.731 303.297 28.431 300.185 23.263 297.086L34.083 270.965C39.903 272.424 45.851 273.97 51.785 275.567C60.157 277.823 68.997 274.875 74.305 268.06C80.4 260.23 87.455 253.174 95.27 247.088C102.078 241.787 105.019 232.95 102.764 224.576C101.174 218.672 99.628 212.726 98.163 206.882L124.285 196.063C127.369 201.209 130.481 206.507 133.544 211.828C137.872 219.343 146.207 223.517 154.76 222.446C164.587 221.223 174.564 221.223 184.417 222.451C192.992 223.519 201.322 219.349 205.648 211.834C208.701 206.53 211.814 201.23 214.91 196.063L241.032 206.882C239.57 212.715 238.024 218.664 236.429 224.585C234.174 232.959 237.121 241.799 243.936 247.104C251.765 253.199 258.821 260.253 264.909 268.069C270.209 274.876 279.042 277.817 287.42 275.563C293.339 273.969 299.285 272.423 305.114 270.962L315.933 297.083C310.78 300.172 305.482 303.283 300.168 306.343C292.653 310.67 288.484 318.997 289.549 327.559C290.772 337.386 290.77 347.365 289.544 357.216C288.478 365.787 292.645 374.12 300.161 378.447C305.457 381.496 310.757 384.608 315.933 387.71L305.116 413.834Z" fill="white"/>
<path d="M241.762 312.511L241.761 312.51C225.281 272.721 179.505 253.758 139.71 270.239C99.922 286.721 80.958 332.501 97.44 372.29C105.423 391.566 120.437 406.577 139.711 414.562C149.348 418.553 159.474 420.549 169.6 420.549C179.726 420.549 189.852 418.553 199.491 414.562C239.279 398.08 258.242 352.301 241.762 312.511ZM190.72 393.388C177.102 399.029 162.103 399.028 148.481 393.388C134.863 387.747 124.256 377.139 118.614 363.52C106.967 335.406 120.367 303.058 148.482 291.413C155.367 288.561 162.503 287.211 169.529 287.211C191.196 287.211 211.794 300.051 220.589 321.281C232.234 349.395 218.834 381.742 190.72 393.388Z" fill="white"/>
<path d="M496.553 100.936C492.597 100.344 488.534 99.769 484.442 99.223C482.38 92.366 479.626 85.718 476.228 79.404C478.732 76.129 481.2 72.848 483.585 69.625C488.88 62.464 488.114 52.308 481.805 46.002L465.997 30.196C459.688 23.886 449.532 23.121 442.373 28.418C439.139 30.811 435.859 33.278 432.594 35.773C426.281 32.375 419.634 29.621 412.775 27.558C412.228 23.466 411.655 19.403 411.063 15.448C409.746 6.642 402.024 0 393.102 0H370.746C361.824 0 354.102 6.642 352.785 15.447C352.194 19.4 351.62 23.464 351.073 27.557C344.214 29.62 337.566 32.374 331.254 35.772C327.991 33.276 324.709 30.808 321.476 28.417C314.315 23.12 304.159 23.885 297.852 30.194L282.046 45.999C275.736 52.307 274.969 62.464 280.266 69.626C282.649 72.848 285.117 76.13 287.62 79.404C284.224 85.717 281.469 92.364 279.406 99.223C275.315 99.77 271.251 100.344 267.296 100.936C258.489 102.254 251.847 109.975 251.847 118.898V141.253C251.847 150.175 258.487 157.897 267.294 159.215C271.25 159.807 275.313 160.382 279.405 160.928C281.468 167.786 284.222 174.433 287.619 180.747C285.118 184.019 282.65 187.299 280.262 190.526C274.968 197.685 275.733 207.843 282.042 214.148L297.85 229.956C304.158 236.266 314.314 237.03 321.474 231.734C324.708 229.343 327.988 226.874 331.252 224.38C337.567 227.778 344.215 230.532 351.072 232.594C351.617 236.685 352.192 240.749 352.784 244.705C354.102 253.511 361.824 260.153 370.746 260.153H393.102C402.024 260.153 409.746 253.513 411.063 244.704C411.654 240.748 412.228 236.685 412.775 232.593C419.633 230.532 426.28 227.776 432.594 224.378C435.857 226.874 439.139 229.342 442.372 231.734C449.531 237.031 459.689 236.266 465.996 229.957L481.804 214.151C488.113 207.843 488.879 197.686 483.582 190.525C481.196 187.299 478.728 184.017 476.228 180.748C479.624 174.435 482.379 167.789 484.442 160.929C488.533 160.382 492.597 159.808 496.552 159.216C505.359 157.898 512.001 150.177 512.001 141.254V118.899C512 109.976 505.359 102.254 496.553 100.936ZM490.228 138.142C486.636 138.663 482.971 139.169 479.294 139.648C472.021 140.597 466.067 145.759 464.129 152.797C462.272 159.536 459.577 166.039 456.12 172.125C452.509 178.478 453.066 186.34 457.539 192.157C459.794 195.089 462.031 198.04 464.208 200.956L452.804 212.361C449.879 210.178 446.928 207.942 444.002 205.692C438.188 201.217 430.324 200.664 423.97 204.271C417.883 207.729 411.38 210.424 404.645 212.281C397.603 214.221 392.441 220.175 391.495 227.446C391.016 231.123 390.511 234.789 389.989 238.381H373.859C373.338 234.789 372.833 231.124 372.353 227.45C371.404 220.176 366.243 214.222 359.203 212.282C352.466 210.426 345.965 207.731 339.876 204.273C333.522 200.663 325.658 201.218 319.845 205.692C316.918 207.943 313.969 210.178 311.042 212.361L299.638 200.956C301.815 198.037 304.051 195.088 306.309 192.153C310.779 186.338 311.336 178.476 307.726 172.123C304.269 166.037 301.574 159.533 299.717 152.796C297.778 145.756 291.825 140.595 284.552 139.646C280.875 139.166 277.209 138.662 273.617 138.139V122.011C277.209 121.49 280.874 120.984 284.551 120.505C291.824 119.556 297.778 114.394 299.716 107.356C301.573 100.618 304.267 94.115 307.725 88.028C311.336 81.675 310.779 73.812 306.308 67.997C304.049 65.061 301.813 62.111 299.638 59.197L311.042 47.792C313.967 49.975 316.917 52.211 319.842 54.46C325.654 58.935 333.517 59.493 339.876 55.882C345.961 52.425 352.465 49.73 359.201 47.872C366.243 45.932 371.405 39.978 372.351 32.707C372.831 29.03 373.337 25.365 373.858 21.773H389.988C390.509 25.364 391.014 29.029 391.493 32.704C392.442 39.978 397.604 45.932 404.643 47.871C411.381 49.728 417.885 52.424 423.971 55.881C430.326 59.492 438.189 58.931 444.001 54.461C446.928 52.211 449.877 49.975 452.804 47.792L464.208 59.197C462.033 62.112 459.797 65.063 457.538 68C453.067 73.814 452.511 81.676 456.119 88.029C459.576 94.117 462.271 100.621 464.128 107.357C466.067 114.397 472.02 119.558 479.293 120.507C482.97 120.987 486.636 121.492 490.228 122.014V138.142Z" fill="white"/>
<path d="M381.924 83.675C356.339 83.675 335.523 104.49 335.523 130.076C335.523 155.663 356.338 176.478 381.924 176.478C407.51 176.478 428.325 155.663 428.325 130.076C428.325 104.49 407.51 83.675 381.924 83.675ZM381.924 155.851C367.713 155.851 356.149 144.288 356.149 130.075C356.149 115.862 367.712 104.3 381.924 104.3C396.136 104.3 407.698 115.863 407.699 130.075C407.699 144.288 396.136 155.851 381.924 155.851Z" fill="white"/>
</g>
<defs>
<clipPath id="clip0_28_2">
<rect width="512" height="512" fill="white"/>
</clipPath>
</defs>
</svg>
