<svg width="512" height="512" viewBox="0 0 512 512" fill="none" xmlns="http://www.w3.org/2000/svg">
<path d="M449.511 137.648V55.268C449.511 46.196 444.843 38.041 437.024 33.454C429.175 28.849 419.734 28.754 411.773 33.207C335.749 75.723 253.048 100.552 165.968 107.009C165.301 107.058 86.596 107.402 86.596 107.402C66.829 107.402 50.491 122.325 48.23 141.493H32.075C14.39 141.493 0 155.881 0 173.567V244.035C0 261.721 14.39 276.11 32.075 276.11H48.228C49.856 289.905 58.772 301.493 71.013 306.909L128.498 465.557C132.091 475.432 141.565 482.068 152.076 482.068H209.763C217.941 482.068 225.623 478.069 230.314 471.371C235.005 464.671 236.136 456.084 233.344 448.411L183.955 312.174C264.437 320.535 340.994 344.775 411.772 384.357C415.677 386.541 419.938 387.63 424.192 387.63C428.609 387.629 433.022 386.455 437.021 384.109C444.84 379.521 449.51 371.367 449.51 362.293V279.913C484.711 275.353 512 245.204 512 208.781C512 172.357 484.711 142.207 449.511 137.648ZM47.951 251.372H32.075C28.028 251.372 24.737 248.081 24.737 244.034V173.567C24.737 169.523 28.028 166.23 32.075 166.23H47.951V251.372ZM80.93 284.245C76.08 282.071 72.688 277.206 72.688 271.557V146.044C72.688 138.377 78.928 132.139 86.595 132.139H153.928V285.463C153.928 285.463 86.008 285.437 85.715 285.419C83.234 285.132 82.712 285.004 80.93 284.245ZM210.091 456.853C210.131 456.954 210.157 457.026 210.05 457.177C209.945 457.328 209.867 457.328 209.762 457.328H152.075C151.928 457.328 151.793 457.235 151.748 457.113L98.515 310.199H156.926L210.091 456.853ZM424.774 362.294C424.774 362.473 424.774 362.616 424.507 362.773C424.189 362.957 423.999 362.852 423.847 362.767C347.813 320.247 265.378 294.722 178.665 286.807V130.767C265.385 122.84 347.82 97.313 423.844 54.797C424 54.712 424.193 54.607 424.507 54.791C424.774 54.948 424.774 55.089 424.774 55.268V362.294ZM449.511 254.873V162.688C471.014 167.002 487.263 186.027 487.263 208.78C487.263 231.534 471.013 250.56 449.511 254.873Z" fill="white"/>
</svg>
